# Blender 3.6.0
# www.blender.org
mtllib Sztanga.mtl
o Cylinder
v 0.000000 0.051950 -3.025913
v 0.019880 0.047996 -3.025913
v 0.036734 0.036734 -3.025913
v 0.047995 0.019880 -3.025913
v 0.051950 0.000000 -3.025913
v 0.047995 -0.019880 -3.025913
v 0.036734 -0.036734 -3.025913
v 0.019880 -0.047995 -3.025913
v -0.000000 -0.051950 -3.025913
v -0.019880 -0.047995 -3.025913
v -0.036734 -0.036734 -3.025913
v -0.047995 -0.019880 -3.025913
v -0.051950 0.000000 -3.025913
v -0.047995 0.019880 -3.025913
v -0.036734 0.036734 -3.025913
v -0.019880 0.047996 -3.025913
v 0.000000 0.051950 0.000000
v 0.019880 0.047995 0.000000
v 0.036734 0.036734 0.000000
v 0.047995 0.019880 0.000000
v 0.051950 -0.000000 -0.000000
v 0.047995 -0.019880 -0.000000
v 0.036734 -0.036734 -0.000000
v 0.019880 -0.047995 -0.000000
v -0.000000 -0.051950 -0.000000
v -0.019880 -0.047995 -0.000000
v -0.036734 -0.036734 -0.000000
v -0.047995 -0.019880 -0.000000
v -0.051950 0.000000 0.000000
v -0.047995 0.019880 0.000000
v -0.036734 0.036734 0.000000
v -0.019880 0.047995 0.000000
v 0.000000 0.051950 3.025913
v 0.019880 0.047995 3.025913
v 0.036734 0.036734 3.025913
v 0.047995 0.019880 3.025913
v 0.051950 -0.000000 3.025913
v 0.047995 -0.019880 3.025913
v 0.036734 -0.036734 3.025913
v 0.019880 -0.047996 3.025913
v -0.000000 -0.051950 3.025913
v -0.019880 -0.047996 3.025913
v -0.036734 -0.036734 3.025913
v -0.047995 -0.019880 3.025913
v -0.051950 -0.000000 3.025913
v -0.047995 0.019880 3.025913
v -0.036734 0.036734 3.025913
v -0.019880 0.047995 3.025913
vn -0.0000 -0.0000 -1.0000
vn -0.1951 0.9808 -0.0000
vn -0.5556 0.8315 -0.0000
vn -0.8315 0.5556 -0.0000
vn -0.9808 0.1951 -0.0000
vn -0.9808 -0.1951 -0.0000
vn -0.8315 -0.5556 -0.0000
vn -0.5556 -0.8315 -0.0000
vn -0.1951 -0.9808 -0.0000
vn 0.1951 -0.9808 -0.0000
vn 0.5556 -0.8315 -0.0000
vn 0.8315 -0.5556 -0.0000
vn 0.9808 -0.1951 -0.0000
vn 0.9808 0.1951 -0.0000
vn 0.8315 0.5556 -0.0000
vn 0.5556 0.8315 -0.0000
vn 0.1951 0.9808 -0.0000
vn -0.0000 -0.0000 1.0000
vt 0.750000 0.490000
vt 0.841844 0.471731
vt 0.919706 0.419706
vt 0.971731 0.341844
vt 0.990000 0.250000
vt 0.971731 0.158156
vt 0.919706 0.080294
vt 0.841844 0.028269
vt 0.750000 0.010000
vt 0.658156 0.028269
vt 0.580294 0.080294
vt 0.528269 0.158156
vt 0.510000 0.250000
vt 0.528269 0.341844
vt 0.580294 0.419706
vt 0.658156 0.471731
vt 0.062500 0.500000
vt 0.062500 0.750000
vt 0.000000 0.750000
vt 0.000000 0.500000
vt 0.125000 0.500000
vt 0.125000 0.750000
vt 0.187500 0.500000
vt 0.187500 0.750000
vt 0.250000 0.500000
vt 0.250000 0.750000
vt 0.312500 0.500000
vt 0.312500 0.750000
vt 0.375000 0.500000
vt 0.375000 0.750000
vt 0.437500 0.500000
vt 0.437500 0.750000
vt 0.500000 0.500000
vt 0.500000 0.750000
vt 0.562500 0.500000
vt 0.562500 0.750000
vt 0.625000 0.500000
vt 0.625000 0.750000
vt 0.687500 0.500000
vt 0.687500 0.750000
vt 0.750000 0.500000
vt 0.750000 0.750000
vt 0.812500 0.500000
vt 0.812500 0.750000
vt 0.875000 0.500000
vt 0.875000 0.750000
vt 0.937500 0.500000
vt 0.937500 0.750000
vt 1.000000 0.500000
vt 1.000000 0.750000
s 0
usemtl Material
f 1/1/1 2/2/1 3/3/1 4/4/1 5/5/1 6/6/1 7/7/1 8/8/1 9/9/1 10/10/1 11/11/1 12/12/1 13/13/1 14/14/1 15/15/1 16/16/1
f 16/17/2 32/18/2 17/19/2 1/20/2
f 15/21/3 31/22/3 32/18/3 16/17/3
f 14/23/4 30/24/4 31/22/4 15/21/4
f 13/25/5 29/26/5 30/24/5 14/23/5
f 12/27/6 28/28/6 29/26/6 13/25/6
f 11/29/7 27/30/7 28/28/7 12/27/7
f 10/31/8 26/32/8 27/30/8 11/29/8
f 9/33/9 25/34/9 26/32/9 10/31/9
f 8/35/10 24/36/10 25/34/10 9/33/10
f 7/37/11 23/38/11 24/36/11 8/35/11
f 6/39/12 22/40/12 23/38/12 7/37/12
f 5/41/13 21/42/13 22/40/13 6/39/13
f 4/43/14 20/44/14 21/42/14 5/41/14
f 3/45/15 19/46/15 20/44/15 4/43/15
f 2/47/16 18/48/16 19/46/16 3/45/16
f 1/49/17 17/50/17 18/48/17 2/47/17
f 33/1/18 48/16/18 47/15/18 46/14/18 45/13/18 44/12/18 43/11/18 42/10/18 41/9/18 40/8/18 39/7/18 38/6/18 37/5/18 36/4/18 35/3/18 34/2/18
f 48/17/2 33/20/2 17/19/2 32/18/2
f 47/21/3 48/17/3 32/18/3 31/22/3
f 46/23/4 47/21/4 31/22/4 30/24/4
f 45/25/5 46/23/5 30/24/5 29/26/5
f 44/27/6 45/25/6 29/26/6 28/28/6
f 43/29/7 44/27/7 28/28/7 27/30/7
f 42/31/8 43/29/8 27/30/8 26/32/8
f 41/33/9 42/31/9 26/32/9 25/34/9
f 40/35/10 41/33/10 25/34/10 24/36/10
f 39/37/11 40/35/11 24/36/11 23/38/11
f 38/39/12 39/37/12 23/38/12 22/40/12
f 37/41/13 38/39/13 22/40/13 21/42/13
f 36/43/14 37/41/14 21/42/14 20/44/14
f 35/45/15 36/43/15 20/44/15 19/46/15
f 34/47/16 35/45/16 19/46/16 18/48/16
f 33/49/17 34/47/17 18/48/17 17/50/17
o Cylinder.001
v -0.453798 -0.000000 -2.508260
v -0.453798 -0.000000 -2.574053
v -0.419255 -0.173661 -2.508260
v -0.419255 -0.173661 -2.574053
v -0.320884 -0.320884 -2.508260
v -0.320884 -0.320884 -2.574053
v -0.173661 -0.419255 -2.508260
v -0.173661 -0.419255 -2.574053
v 0.000000 -0.453798 -2.508260
v 0.000000 -0.453798 -2.574053
v 0.173661 -0.419255 -2.508260
v 0.173661 -0.419255 -2.574053
v 0.320884 -0.320884 -2.508260
v 0.320884 -0.320884 -2.574053
v 0.419255 -0.173661 -2.508260
v 0.419255 -0.173661 -2.574053
v 0.453798 0.000000 -2.508260
v 0.453798 0.000000 -2.574053
v 0.419255 0.173661 -2.508260
v 0.419255 0.173661 -2.574053
v 0.320884 0.320884 -2.508260
v 0.320884 0.320884 -2.574053
v 0.173661 0.419255 -2.508260
v 0.173661 0.419255 -2.574053
v -0.000000 0.453798 -2.508260
v -0.000000 0.453798 -2.574053
v -0.173661 0.419255 -2.508260
v -0.173661 0.419255 -2.574053
v -0.320884 0.320884 -2.508260
v -0.320884 0.320884 -2.574053
v -0.419255 0.173661 -2.508260
v -0.419255 0.173661 -2.574053
v -0.453798 -0.000000 2.508260
v -0.453798 -0.000000 2.574053
v -0.419255 -0.173661 2.508260
v -0.419255 -0.173661 2.574053
v -0.320884 -0.320884 2.508260
v -0.320884 -0.320884 2.574053
v -0.173661 -0.419255 2.508260
v -0.173661 -0.419255 2.574053
v 0.000000 -0.453799 2.508260
v 0.000000 -0.453799 2.574053
v 0.173661 -0.419255 2.508260
v 0.173661 -0.419255 2.574053
v 0.320884 -0.320884 2.508260
v 0.320884 -0.320884 2.574053
v 0.419255 -0.173661 2.508260
v 0.419255 -0.173661 2.574053
v 0.453798 -0.000000 2.508260
v 0.453798 -0.000000 2.574053
v 0.419255 0.173661 2.508260
v 0.419255 0.173661 2.574053
v 0.320884 0.320884 2.508260
v 0.320884 0.320884 2.574053
v 0.173661 0.419255 2.508260
v 0.173661 0.419255 2.574053
v -0.000000 0.453798 2.508260
v -0.000000 0.453798 2.574053
v -0.173661 0.419255 2.508260
v -0.173661 0.419255 2.574053
v -0.320884 0.320884 2.508260
v -0.320884 0.320884 2.574053
v -0.419255 0.173661 2.508260
v -0.419255 0.173661 2.574053
vn -0.9808 -0.1951 -0.0000
vn -0.8315 -0.5556 -0.0000
vn -0.5556 -0.8315 -0.0000
vn -0.1951 -0.9808 -0.0000
vn 0.1951 -0.9808 -0.0000
vn 0.5556 -0.8315 -0.0000
vn 0.8315 -0.5556 -0.0000
vn 0.9808 -0.1951 -0.0000
vn 0.9808 0.1951 -0.0000
vn 0.8315 0.5556 -0.0000
vn 0.5556 0.8315 -0.0000
vn 0.1951 0.9808 -0.0000
vn -0.1951 0.9808 -0.0000
vn -0.5556 0.8315 -0.0000
vn -0.0000 -0.0000 -1.0000
vn -0.8315 0.5556 -0.0000
vn -0.9808 0.1951 -0.0000
vn -0.0000 -0.0000 1.0000
vt 1.000000 0.500000
vt 1.000000 1.000000
vt 0.937500 1.000000
vt 0.937500 0.500000
vt 0.875000 1.000000
vt 0.875000 0.500000
vt 0.812500 1.000000
vt 0.812500 0.500000
vt 0.750000 1.000000
vt 0.750000 0.500000
vt 0.687500 1.000000
vt 0.687500 0.500000
vt 0.625000 1.000000
vt 0.625000 0.500000
vt 0.562500 1.000000
vt 0.562500 0.500000
vt 0.500000 1.000000
vt 0.500000 0.500000
vt 0.437500 1.000000
vt 0.437500 0.500000
vt 0.375000 1.000000
vt 0.375000 0.500000
vt 0.312500 1.000000
vt 0.312500 0.500000
vt 0.250000 1.000000
vt 0.250000 0.500000
vt 0.187500 1.000000
vt 0.187500 0.500000
vt 0.125000 1.000000
vt 0.125000 0.500000
vt 0.341844 0.471731
vt 0.250000 0.490000
vt 0.158156 0.471731
vt 0.080294 0.419706
vt 0.028269 0.341844
vt 0.010000 0.250000
vt 0.028269 0.158156
vt 0.080294 0.080294
vt 0.158156 0.028269
vt 0.250000 0.010000
vt 0.341844 0.028269
vt 0.419706 0.080294
vt 0.471731 0.158156
vt 0.490000 0.250000
vt 0.471731 0.341844
vt 0.419706 0.419706
vt 0.062500 1.000000
vt 0.062500 0.500000
vt 0.000000 1.000000
vt 0.000000 0.500000
vt 0.750000 0.490000
vt 0.841844 0.471731
vt 0.919706 0.419706
vt 0.971731 0.341844
vt 0.990000 0.250000
vt 0.971731 0.158156
vt 0.919706 0.080294
vt 0.841844 0.028269
vt 0.750000 0.010000
vt 0.658156 0.028269
vt 0.580294 0.080294
vt 0.528269 0.158156
vt 0.510000 0.250000
vt 0.528269 0.341844
vt 0.580294 0.419706
vt 0.658156 0.471731
s 0
usemtl Material
f 49/51/19 50/52/19 52/53/19 51/54/19
f 51/54/20 52/53/20 54/55/20 53/56/20
f 53/56/21 54/55/21 56/57/21 55/58/21
f 55/58/22 56/57/22 58/59/22 57/60/22
f 57/60/23 58/59/23 60/61/23 59/62/23
f 59/62/24 60/61/24 62/63/24 61/64/24
f 61/64/25 62/63/25 64/65/25 63/66/25
f 63/66/26 64/65/26 66/67/26 65/68/26
f 65/68/27 66/67/27 68/69/27 67/70/27
f 67/70/28 68/69/28 70/71/28 69/72/28
f 69/72/29 70/71/29 72/73/29 71/74/29
f 71/74/30 72/73/30 74/75/30 73/76/30
f 73/76/31 74/75/31 76/77/31 75/78/31
f 75/78/32 76/77/32 78/79/32 77/80/32
f 52/81/33 50/82/33 80/83/33 78/84/33 76/85/33 74/86/33 72/87/33 70/88/33 68/89/33 66/90/33 64/91/33 62/92/33 60/93/33 58/94/33 56/95/33 54/96/33
f 77/80/34 78/79/34 80/97/34 79/98/34
f 79/98/35 80/97/35 50/99/35 49/100/35
f 49/101/36 51/102/36 53/103/36 55/104/36 57/105/36 59/106/36 61/107/36 63/108/36 65/109/36 67/110/36 69/111/36 71/112/36 73/113/36 75/114/36 77/115/36 79/116/36
f 81/51/19 83/54/19 84/53/19 82/52/19
f 83/54/20 85/56/20 86/55/20 84/53/20
f 85/56/21 87/58/21 88/57/21 86/55/21
f 87/58/22 89/60/22 90/59/22 88/57/22
f 89/60/23 91/62/23 92/61/23 90/59/23
f 91/62/24 93/64/24 94/63/24 92/61/24
f 93/64/25 95/66/25 96/65/25 94/63/25
f 95/66/26 97/68/26 98/67/26 96/65/26
f 97/68/27 99/70/27 100/69/27 98/67/27
f 99/70/28 101/72/28 102/71/28 100/69/28
f 101/72/29 103/74/29 104/73/29 102/71/29
f 103/74/30 105/76/30 106/75/30 104/73/30
f 105/76/31 107/78/31 108/77/31 106/75/31
f 107/78/32 109/80/32 110/79/32 108/77/32
f 84/81/36 86/96/36 88/95/36 90/94/36 92/93/36 94/92/36 96/91/36 98/90/36 100/89/36 102/88/36 104/87/36 106/86/36 108/85/36 110/84/36 112/83/36 82/82/36
f 109/80/34 111/98/34 112/97/34 110/79/34
f 111/98/35 81/100/35 82/99/35 112/97/35
f 81/101/33 111/116/33 109/115/33 107/114/33 105/113/33 103/112/33 101/111/33 99/110/33 97/109/33 95/108/33 93/107/33 91/106/33 89/105/33 87/104/33 85/103/33 83/102/33
o Cylinder.002
v -0.575143 -0.000000 -2.431315
v -0.575143 -0.000000 -2.497108
v -0.531363 -0.220098 -2.431315
v -0.531363 -0.220098 -2.497108
v -0.406687 -0.406687 -2.431315
v -0.406687 -0.406687 -2.497108
v -0.220098 -0.531363 -2.431315
v -0.220098 -0.531363 -2.497108
v 0.000000 -0.575143 -2.431315
v 0.000000 -0.575143 -2.497108
v 0.220098 -0.531363 -2.431315
v 0.220098 -0.531363 -2.497108
v 0.406687 -0.406687 -2.431315
v 0.406687 -0.406687 -2.497108
v 0.531363 -0.220098 -2.431315
v 0.531363 -0.220098 -2.497108
v 0.575143 0.000000 -2.431315
v 0.575143 0.000000 -2.497108
v 0.531363 0.220098 -2.431315
v 0.531363 0.220098 -2.497108
v 0.406687 0.406687 -2.431315
v 0.406687 0.406687 -2.497108
v 0.220098 0.531363 -2.431315
v 0.220098 0.531363 -2.497108
v -0.000000 0.575143 -2.431315
v -0.000000 0.575143 -2.497108
v -0.220098 0.531363 -2.431315
v -0.220098 0.531363 -2.497108
v -0.406687 0.406687 -2.431315
v -0.406687 0.406687 -2.497108
v -0.531363 0.220098 -2.431315
v -0.531363 0.220098 -2.497108
v -0.575143 -0.000000 2.431315
v -0.575143 -0.000000 2.497108
v -0.531363 -0.220098 2.431315
v -0.531363 -0.220098 2.497108
v -0.406687 -0.406688 2.431315
v -0.406687 -0.406688 2.497108
v -0.220098 -0.531363 2.431315
v -0.220098 -0.531363 2.497108
v 0.000000 -0.575143 2.431315
v 0.000000 -0.575143 2.497108
v 0.220098 -0.531363 2.431315
v 0.220098 -0.531363 2.497108
v 0.406687 -0.406688 2.431315
v 0.406687 -0.406688 2.497108
v 0.531363 -0.220098 2.431315
v 0.531363 -0.220098 2.497108
v 0.575143 -0.000000 2.431315
v 0.575143 -0.000000 2.497108
v 0.531363 0.220097 2.431315
v 0.531363 0.220097 2.497108
v 0.406687 0.406687 2.431315
v 0.406687 0.406687 2.497108
v 0.220098 0.531363 2.431315
v 0.220098 0.531363 2.497108
v -0.000000 0.575143 2.431315
v -0.000000 0.575143 2.497108
v -0.220098 0.531362 2.431315
v -0.220098 0.531362 2.497108
v -0.406687 0.406687 2.431315
v -0.406687 0.406687 2.497108
v -0.531363 0.220097 2.431315
v -0.531363 0.220097 2.497108
vn -0.9808 -0.1951 -0.0000
vn -0.8315 -0.5556 -0.0000
vn -0.5556 -0.8315 -0.0000
vn -0.1951 -0.9808 -0.0000
vn 0.1951 -0.9808 -0.0000
vn 0.5556 -0.8315 -0.0000
vn 0.8315 -0.5556 -0.0000
vn 0.9808 -0.1951 -0.0000
vn 0.9808 0.1951 -0.0000
vn 0.8315 0.5556 -0.0000
vn 0.5556 0.8315 -0.0000
vn 0.1951 0.9808 -0.0000
vn -0.1951 0.9808 -0.0000
vn -0.5556 0.8315 -0.0000
vn -0.0000 -0.0000 -1.0000
vn -0.8315 0.5556 -0.0000
vn -0.9808 0.1951 -0.0000
vn -0.0000 -0.0000 1.0000
vt 1.000000 0.500000
vt 1.000000 1.000000
vt 0.937500 1.000000
vt 0.937500 0.500000
vt 0.875000 1.000000
vt 0.875000 0.500000
vt 0.812500 1.000000
vt 0.812500 0.500000
vt 0.750000 1.000000
vt 0.750000 0.500000
vt 0.687500 1.000000
vt 0.687500 0.500000
vt 0.625000 1.000000
vt 0.625000 0.500000
vt 0.562500 1.000000
vt 0.562500 0.500000
vt 0.500000 1.000000
vt 0.500000 0.500000
vt 0.437500 1.000000
vt 0.437500 0.500000
vt 0.375000 1.000000
vt 0.375000 0.500000
vt 0.312500 1.000000
vt 0.312500 0.500000
vt 0.250000 1.000000
vt 0.250000 0.500000
vt 0.187500 1.000000
vt 0.187500 0.500000
vt 0.125000 1.000000
vt 0.125000 0.500000
vt 0.341844 0.471731
vt 0.250000 0.490000
vt 0.158156 0.471731
vt 0.080294 0.419706
vt 0.028269 0.341844
vt 0.010000 0.250000
vt 0.028269 0.158156
vt 0.080294 0.080294
vt 0.158156 0.028269
vt 0.250000 0.010000
vt 0.341844 0.028269
vt 0.419706 0.080294
vt 0.471731 0.158156
vt 0.490000 0.250000
vt 0.471731 0.341844
vt 0.419706 0.419706
vt 0.062500 1.000000
vt 0.062500 0.500000
vt 0.000000 1.000000
vt 0.000000 0.500000
vt 0.750000 0.490000
vt 0.841844 0.471731
vt 0.919706 0.419706
vt 0.971731 0.341844
vt 0.990000 0.250000
vt 0.971731 0.158156
vt 0.919706 0.080294
vt 0.841844 0.028269
vt 0.750000 0.010000
vt 0.658156 0.028269
vt 0.580294 0.080294
vt 0.528269 0.158156
vt 0.510000 0.250000
vt 0.528269 0.341844
vt 0.580294 0.419706
vt 0.658156 0.471731
s 0
usemtl Material
f 113/117/37 114/118/37 116/119/37 115/120/37
f 115/120/38 116/119/38 118/121/38 117/122/38
f 117/122/39 118/121/39 120/123/39 119/124/39
f 119/124/40 120/123/40 122/125/40 121/126/40
f 121/126/41 122/125/41 124/127/41 123/128/41
f 123/128/42 124/127/42 126/129/42 125/130/42
f 125/130/43 126/129/43 128/131/43 127/132/43
f 127/132/44 128/131/44 130/133/44 129/134/44
f 129/134/45 130/133/45 132/135/45 131/136/45
f 131/136/46 132/135/46 134/137/46 133/138/46
f 133/138/47 134/137/47 136/139/47 135/140/47
f 135/140/48 136/139/48 138/141/48 137/142/48
f 137/142/49 138/141/49 140/143/49 139/144/49
f 139/144/50 140/143/50 142/145/50 141/146/50
f 116/147/51 114/148/51 144/149/51 142/150/51 140/151/51 138/152/51 136/153/51 134/154/51 132/155/51 130/156/51 128/157/51 126/158/51 124/159/51 122/160/51 120/161/51 118/162/51
f 141/146/52 142/145/52 144/163/52 143/164/52
f 143/164/53 144/163/53 114/165/53 113/166/53
f 113/167/54 115/168/54 117/169/54 119/170/54 121/171/54 123/172/54 125/173/54 127/174/54 129/175/54 131/176/54 133/177/54 135/178/54 137/179/54 139/180/54 141/181/54 143/182/54
f 145/117/37 147/120/37 148/119/37 146/118/37
f 147/120/38 149/122/38 150/121/38 148/119/38
f 149/122/39 151/124/39 152/123/39 150/121/39
f 151/124/40 153/126/40 154/125/40 152/123/40
f 153/126/41 155/128/41 156/127/41 154/125/41
f 155/128/42 157/130/42 158/129/42 156/127/42
f 157/130/43 159/132/43 160/131/43 158/129/43
f 159/132/44 161/134/44 162/133/44 160/131/44
f 161/134/45 163/136/45 164/135/45 162/133/45
f 163/136/46 165/138/46 166/137/46 164/135/46
f 165/138/47 167/140/47 168/139/47 166/137/47
f 167/140/48 169/142/48 170/141/48 168/139/48
f 169/142/49 171/144/49 172/143/49 170/141/49
f 171/144/50 173/146/50 174/145/50 172/143/50
f 148/147/54 150/162/54 152/161/54 154/160/54 156/159/54 158/158/54 160/157/54 162/156/54 164/155/54 166/154/54 168/153/54 170/152/54 172/151/54 174/150/54 176/149/54 146/148/54
f 173/146/52 175/164/52 176/163/52 174/145/52
f 175/164/53 145/166/53 146/165/53 176/163/53
f 145/167/51 175/182/51 173/181/51 171/180/51 169/179/51 167/178/51 165/177/51 163/176/51 161/175/51 159/174/51 157/173/51 155/172/51 153/171/51 151/170/51 149/169/51 147/168/51
o Cylinder.003
v -0.662879 -0.000000 -2.349016
v -0.662879 -0.000000 -2.414809
v -0.612420 -0.253673 -2.349016
v -0.612420 -0.253673 -2.414809
v -0.468726 -0.468726 -2.349016
v -0.468726 -0.468726 -2.414809
v -0.253673 -0.612420 -2.349016
v -0.253673 -0.612420 -2.414809
v 0.000000 -0.662879 -2.349016
v 0.000000 -0.662879 -2.414809
v 0.253673 -0.612420 -2.349016
v 0.253673 -0.612420 -2.414809
v 0.468726 -0.468726 -2.349016
v 0.468726 -0.468726 -2.414809
v 0.612420 -0.253673 -2.349016
v 0.612420 -0.253673 -2.414809
v 0.662879 0.000000 -2.349016
v 0.662879 0.000000 -2.414809
v 0.612420 0.253673 -2.349016
v 0.612420 0.253673 -2.414809
v 0.468726 0.468726 -2.349016
v 0.468726 0.468726 -2.414809
v 0.253673 0.612420 -2.349016
v 0.253673 0.612420 -2.414809
v -0.000000 0.662879 -2.349016
v -0.000000 0.662879 -2.414809
v -0.253673 0.612420 -2.349016
v -0.253673 0.612420 -2.414809
v -0.468726 0.468726 -2.349016
v -0.468726 0.468726 -2.414809
v -0.612420 0.253673 -2.349016
v -0.612420 0.253673 -2.414809
v -0.662879 -0.000000 2.349016
v -0.662879 -0.000000 2.414809
v -0.612420 -0.253673 2.349016
v -0.612420 -0.253673 2.414809
v -0.468726 -0.468726 2.349016
v -0.468726 -0.468726 2.414809
v -0.253673 -0.612420 2.349016
v -0.253673 -0.612420 2.414809
v 0.000000 -0.662879 2.349016
v 0.000000 -0.662879 2.414809
v 0.253673 -0.612420 2.349016
v 0.253673 -0.612420 2.414809
v 0.468726 -0.468726 2.349016
v 0.468726 -0.468726 2.414809
v 0.612420 -0.253673 2.349016
v 0.612420 -0.253673 2.414809
v 0.662879 -0.000000 2.349016
v 0.662879 -0.000000 2.414809
v 0.612420 0.253673 2.349016
v 0.612420 0.253673 2.414809
v 0.468726 0.468726 2.349016
v 0.468726 0.468726 2.414809
v 0.253673 0.612420 2.349016
v 0.253673 0.612420 2.414809
v -0.000000 0.662879 2.349016
v -0.000000 0.662879 2.414809
v -0.253673 0.612420 2.349016
v -0.253673 0.612420 2.414809
v -0.468726 0.468726 2.349016
v -0.468726 0.468726 2.414809
v -0.612420 0.253672 2.349016
v -0.612420 0.253672 2.414809
vn -0.9808 -0.1951 -0.0000
vn -0.8315 -0.5556 -0.0000
vn -0.5556 -0.8315 -0.0000
vn -0.1951 -0.9808 -0.0000
vn 0.1951 -0.9808 -0.0000
vn 0.5556 -0.8315 -0.0000
vn 0.8315 -0.5556 -0.0000
vn 0.9808 -0.1951 -0.0000
vn 0.9808 0.1951 -0.0000
vn 0.8315 0.5556 -0.0000
vn 0.5556 0.8315 -0.0000
vn 0.1951 0.9808 -0.0000
vn -0.1951 0.9808 -0.0000
vn -0.5556 0.8315 -0.0000
vn -0.0000 -0.0000 -1.0000
vn -0.8315 0.5556 -0.0000
vn -0.9808 0.1951 -0.0000
vn -0.0000 -0.0000 1.0000
vt 1.000000 0.500000
vt 1.000000 1.000000
vt 0.937500 1.000000
vt 0.937500 0.500000
vt 0.875000 1.000000
vt 0.875000 0.500000
vt 0.812500 1.000000
vt 0.812500 0.500000
vt 0.750000 1.000000
vt 0.750000 0.500000
vt 0.687500 1.000000
vt 0.687500 0.500000
vt 0.625000 1.000000
vt 0.625000 0.500000
vt 0.562500 1.000000
vt 0.562500 0.500000
vt 0.500000 1.000000
vt 0.500000 0.500000
vt 0.437500 1.000000
vt 0.437500 0.500000
vt 0.375000 1.000000
vt 0.375000 0.500000
vt 0.312500 1.000000
vt 0.312500 0.500000
vt 0.250000 1.000000
vt 0.250000 0.500000
vt 0.187500 1.000000
vt 0.187500 0.500000
vt 0.125000 1.000000
vt 0.125000 0.500000
vt 0.341844 0.471731
vt 0.250000 0.490000
vt 0.158156 0.471731
vt 0.080294 0.419706
vt 0.028269 0.341844
vt 0.010000 0.250000
vt 0.028269 0.158156
vt 0.080294 0.080294
vt 0.158156 0.028269
vt 0.250000 0.010000
vt 0.341844 0.028269
vt 0.419706 0.080294
vt 0.471731 0.158156
vt 0.490000 0.250000
vt 0.471731 0.341844
vt 0.419706 0.419706
vt 0.062500 1.000000
vt 0.062500 0.500000
vt 0.000000 1.000000
vt 0.000000 0.500000
vt 0.750000 0.490000
vt 0.841844 0.471731
vt 0.919706 0.419706
vt 0.971731 0.341844
vt 0.990000 0.250000
vt 0.971731 0.158156
vt 0.919706 0.080294
vt 0.841844 0.028269
vt 0.750000 0.010000
vt 0.658156 0.028269
vt 0.580294 0.080294
vt 0.528269 0.158156
vt 0.510000 0.250000
vt 0.528269 0.341844
vt 0.580294 0.419706
vt 0.658156 0.471731
s 0
usemtl Material
f 177/183/55 178/184/55 180/185/55 179/186/55
f 179/186/56 180/185/56 182/187/56 181/188/56
f 181/188/57 182/187/57 184/189/57 183/190/57
f 183/190/58 184/189/58 186/191/58 185/192/58
f 185/192/59 186/191/59 188/193/59 187/194/59
f 187/194/60 188/193/60 190/195/60 189/196/60
f 189/196/61 190/195/61 192/197/61 191/198/61
f 191/198/62 192/197/62 194/199/62 193/200/62
f 193/200/63 194/199/63 196/201/63 195/202/63
f 195/202/64 196/201/64 198/203/64 197/204/64
f 197/204/65 198/203/65 200/205/65 199/206/65
f 199/206/66 200/205/66 202/207/66 201/208/66
f 201/208/67 202/207/67 204/209/67 203/210/67
f 203/210/68 204/209/68 206/211/68 205/212/68
f 180/213/69 178/214/69 208/215/69 206/216/69 204/217/69 202/218/69 200/219/69 198/220/69 196/221/69 194/222/69 192/223/69 190/224/69 188/225/69 186/226/69 184/227/69 182/228/69
f 205/212/70 206/211/70 208/229/70 207/230/70
f 207/230/71 208/229/71 178/231/71 177/232/71
f 177/233/72 179/234/72 181/235/72 183/236/72 185/237/72 187/238/72 189/239/72 191/240/72 193/241/72 195/242/72 197/243/72 199/244/72 201/245/72 203/246/72 205/247/72 207/248/72
f 209/183/55 211/186/55 212/185/55 210/184/55
f 211/186/56 213/188/56 214/187/56 212/185/56
f 213/188/57 215/190/57 216/189/57 214/187/57
f 215/190/58 217/192/58 218/191/58 216/189/58
f 217/192/59 219/194/59 220/193/59 218/191/59
f 219/194/60 221/196/60 222/195/60 220/193/60
f 221/196/61 223/198/61 224/197/61 222/195/61
f 223/198/62 225/200/62 226/199/62 224/197/62
f 225/200/63 227/202/63 228/201/63 226/199/63
f 227/202/64 229/204/64 230/203/64 228/201/64
f 229/204/65 231/206/65 232/205/65 230/203/65
f 231/206/66 233/208/66 234/207/66 232/205/66
f 233/208/67 235/210/67 236/209/67 234/207/67
f 235/210/68 237/212/68 238/211/68 236/209/68
f 212/213/72 214/228/72 216/227/72 218/226/72 220/225/72 222/224/72 224/223/72 226/222/72 228/221/72 230/220/72 232/219/72 234/218/72 236/217/72 238/216/72 240/215/72 210/214/72
f 237/212/70 239/230/70 240/229/70 238/211/70
f 239/230/71 209/232/71 210/231/71 240/229/71
f 209/233/69 239/248/69 237/247/69 235/246/69 233/245/69 231/244/69 229/243/69 227/242/69 225/241/69 223/240/69 221/239/69 219/238/69 217/237/69 215/236/69 213/235/69 211/234/69
o Cylinder.004
v -0.741864 -0.000000 -2.267757
v -0.741864 -0.000000 -2.333550
v -0.685393 -0.283899 -2.267757
v -0.685393 -0.283899 -2.333550
v -0.524577 -0.524577 -2.267757
v -0.524577 -0.524577 -2.333550
v -0.283899 -0.685393 -2.267757
v -0.283899 -0.685393 -2.333550
v 0.000000 -0.741864 -2.267757
v 0.000000 -0.741864 -2.333550
v 0.283899 -0.685393 -2.267757
v 0.283899 -0.685393 -2.333550
v 0.524577 -0.524577 -2.267757
v 0.524577 -0.524577 -2.333550
v 0.685393 -0.283899 -2.267757
v 0.685393 -0.283899 -2.333550
v 0.741864 0.000000 -2.267757
v 0.741864 0.000000 -2.333550
v 0.685393 0.283899 -2.267757
v 0.685393 0.283899 -2.333550
v 0.524577 0.524577 -2.267757
v 0.524577 0.524577 -2.333550
v 0.283899 0.685393 -2.267757
v 0.283899 0.685393 -2.333550
v -0.000000 0.741864 -2.267757
v -0.000000 0.741864 -2.333550
v -0.283899 0.685393 -2.267757
v -0.283899 0.685393 -2.333550
v -0.524577 0.524577 -2.267757
v -0.524577 0.524577 -2.333550
v -0.685393 0.283899 -2.267757
v -0.685393 0.283899 -2.333550
v -0.741864 -0.000000 2.267756
v -0.741864 -0.000000 2.333549
v -0.685393 -0.283899 2.267756
v -0.685393 -0.283899 2.333549
v -0.524577 -0.524577 2.267756
v -0.524577 -0.524577 2.333549
v -0.283899 -0.685393 2.267756
v -0.283899 -0.685393 2.333549
v 0.000000 -0.741864 2.267756
v 0.000000 -0.741864 2.333549
v 0.283899 -0.685393 2.267756
v 0.283899 -0.685393 2.333549
v 0.524577 -0.524577 2.267756
v 0.524577 -0.524577 2.333549
v 0.685393 -0.283899 2.267756
v 0.685393 -0.283899 2.333549
v 0.741864 -0.000000 2.267756
v 0.741864 -0.000000 2.333549
v 0.685393 0.283899 2.267756
v 0.685393 0.283899 2.333549
v 0.524577 0.524577 2.267756
v 0.524577 0.524577 2.333549
v 0.283899 0.685393 2.267756
v 0.283899 0.685393 2.333549
v -0.000000 0.741864 2.267756
v -0.000000 0.741864 2.333549
v -0.283899 0.685393 2.267756
v -0.283899 0.685393 2.333549
v -0.524577 0.524577 2.267756
v -0.524577 0.524577 2.333549
v -0.685393 0.283899 2.267756
v -0.685393 0.283899 2.333549
vn -0.9808 -0.1951 -0.0000
vn -0.8315 -0.5556 -0.0000
vn -0.5556 -0.8315 -0.0000
vn -0.1951 -0.9808 -0.0000
vn 0.1951 -0.9808 -0.0000
vn 0.5556 -0.8315 -0.0000
vn 0.8315 -0.5556 -0.0000
vn 0.9808 -0.1951 -0.0000
vn 0.9808 0.1951 -0.0000
vn 0.8315 0.5556 -0.0000
vn 0.5556 0.8315 -0.0000
vn 0.1951 0.9808 -0.0000
vn -0.1951 0.9808 -0.0000
vn -0.5556 0.8315 -0.0000
vn -0.0000 -0.0000 -1.0000
vn -0.8315 0.5556 -0.0000
vn -0.9808 0.1951 -0.0000
vn -0.0000 -0.0000 1.0000
vt 1.000000 0.500000
vt 1.000000 1.000000
vt 0.937500 1.000000
vt 0.937500 0.500000
vt 0.875000 1.000000
vt 0.875000 0.500000
vt 0.812500 1.000000
vt 0.812500 0.500000
vt 0.750000 1.000000
vt 0.750000 0.500000
vt 0.687500 1.000000
vt 0.687500 0.500000
vt 0.625000 1.000000
vt 0.625000 0.500000
vt 0.562500 1.000000
vt 0.562500 0.500000
vt 0.500000 1.000000
vt 0.500000 0.500000
vt 0.437500 1.000000
vt 0.437500 0.500000
vt 0.375000 1.000000
vt 0.375000 0.500000
vt 0.312500 1.000000
vt 0.312500 0.500000
vt 0.250000 1.000000
vt 0.250000 0.500000
vt 0.187500 1.000000
vt 0.187500 0.500000
vt 0.125000 1.000000
vt 0.125000 0.500000
vt 0.341844 0.471731
vt 0.250000 0.490000
vt 0.158156 0.471731
vt 0.080294 0.419706
vt 0.028269 0.341844
vt 0.010000 0.250000
vt 0.028269 0.158156
vt 0.080294 0.080294
vt 0.158156 0.028269
vt 0.250000 0.010000
vt 0.341844 0.028269
vt 0.419706 0.080294
vt 0.471731 0.158156
vt 0.490000 0.250000
vt 0.471731 0.341844
vt 0.419706 0.419706
vt 0.062500 1.000000
vt 0.062500 0.500000
vt 0.000000 1.000000
vt 0.000000 0.500000
vt 0.750000 0.490000
vt 0.841844 0.471731
vt 0.919706 0.419706
vt 0.971731 0.341844
vt 0.990000 0.250000
vt 0.971731 0.158156
vt 0.919706 0.080294
vt 0.841844 0.028269
vt 0.750000 0.010000
vt 0.658156 0.028269
vt 0.580294 0.080294
vt 0.528269 0.158156
vt 0.510000 0.250000
vt 0.528269 0.341844
vt 0.580294 0.419706
vt 0.658156 0.471731
s 0
usemtl Material
f 241/249/73 242/250/73 244/251/73 243/252/73
f 243/252/74 244/251/74 246/253/74 245/254/74
f 245/254/75 246/253/75 248/255/75 247/256/75
f 247/256/76 248/255/76 250/257/76 249/258/76
f 249/258/77 250/257/77 252/259/77 251/260/77
f 251/260/78 252/259/78 254/261/78 253/262/78
f 253/262/79 254/261/79 256/263/79 255/264/79
f 255/264/80 256/263/80 258/265/80 257/266/80
f 257/266/81 258/265/81 260/267/81 259/268/81
f 259/268/82 260/267/82 262/269/82 261/270/82
f 261/270/83 262/269/83 264/271/83 263/272/83
f 263/272/84 264/271/84 266/273/84 265/274/84
f 265/274/85 266/273/85 268/275/85 267/276/85
f 267/276/86 268/275/86 270/277/86 269/278/86
f 244/279/87 242/280/87 272/281/87 270/282/87 268/283/87 266/284/87 264/285/87 262/286/87 260/287/87 258/288/87 256/289/87 254/290/87 252/291/87 250/292/87 248/293/87 246/294/87
f 269/278/88 270/277/88 272/295/88 271/296/88
f 271/296/89 272/295/89 242/297/89 241/298/89
f 241/299/90 243/300/90 245/301/90 247/302/90 249/303/90 251/304/90 253/305/90 255/306/90 257/307/90 259/308/90 261/309/90 263/310/90 265/311/90 267/312/90 269/313/90 271/314/90
f 273/249/73 275/252/73 276/251/73 274/250/73
f 275/252/74 277/254/74 278/253/74 276/251/74
f 277/254/75 279/256/75 280/255/75 278/253/75
f 279/256/76 281/258/76 282/257/76 280/255/76
f 281/258/77 283/260/77 284/259/77 282/257/77
f 283/260/78 285/262/78 286/261/78 284/259/78
f 285/262/79 287/264/79 288/263/79 286/261/79
f 287/264/80 289/266/80 290/265/80 288/263/80
f 289/266/81 291/268/81 292/267/81 290/265/81
f 291/268/82 293/270/82 294/269/82 292/267/82
f 293/270/83 295/272/83 296/271/83 294/269/83
f 295/272/84 297/274/84 298/273/84 296/271/84
f 297/274/85 299/276/85 300/275/85 298/273/85
f 299/276/86 301/278/86 302/277/86 300/275/86
f 276/279/90 278/294/90 280/293/90 282/292/90 284/291/90 286/290/90 288/289/90 290/288/90 292/287/90 294/286/90 296/285/90 298/284/90 300/283/90 302/282/90 304/281/90 274/280/90
f 301/278/88 303/296/88 304/295/88 302/277/88
f 303/296/89 273/298/89 274/297/89 304/295/89
f 273/299/87 303/314/87 301/313/87 299/312/87 297/311/87 295/310/87 293/309/87 291/308/87 289/307/87 287/306/87 285/305/87 283/304/87 281/303/87 279/302/87 277/301/87 275/300/87
o Cylinder.005
v -0.741864 -0.000000 -2.187571
v -0.741864 -0.000000 -2.253364
v -0.685393 -0.283899 -2.187571
v -0.685393 -0.283899 -2.253364
v -0.524577 -0.524577 -2.187571
v -0.524577 -0.524577 -2.253364
v -0.283899 -0.685393 -2.187571
v -0.283899 -0.685393 -2.253364
v 0.000000 -0.741864 -2.187571
v 0.000000 -0.741864 -2.253364
v 0.283899 -0.685393 -2.187571
v 0.283899 -0.685393 -2.253364
v 0.524577 -0.524577 -2.187571
v 0.524577 -0.524577 -2.253364
v 0.685393 -0.283899 -2.187571
v 0.685393 -0.283899 -2.253364
v 0.741864 0.000000 -2.187571
v 0.741864 0.000000 -2.253364
v 0.685393 0.283899 -2.187571
v 0.685393 0.283899 -2.253364
v 0.524577 0.524577 -2.187571
v 0.524577 0.524577 -2.253364
v 0.283899 0.685393 -2.187571
v 0.283899 0.685393 -2.253364
v -0.000000 0.741864 -2.187571
v -0.000000 0.741864 -2.253364
v -0.283899 0.685393 -2.187571
v -0.283899 0.685393 -2.253364
v -0.524577 0.524577 -2.187571
v -0.524577 0.524577 -2.253364
v -0.685393 0.283899 -2.187571
v -0.685393 0.283899 -2.253364
v -0.741864 -0.000000 2.187571
v -0.741864 -0.000000 2.253364
v -0.685393 -0.283899 2.187571
v -0.685393 -0.283899 2.253364
v -0.524577 -0.524577 2.187571
v -0.524577 -0.524577 2.253364
v -0.283899 -0.685393 2.187571
v -0.283899 -0.685393 2.253364
v 0.000000 -0.741864 2.187571
v 0.000000 -0.741864 2.253364
v 0.283899 -0.685393 2.187571
v 0.283899 -0.685393 2.253364
v 0.524577 -0.524577 2.187571
v 0.524577 -0.524577 2.253364
v 0.685393 -0.283899 2.187571
v 0.685393 -0.283899 2.253364
v 0.741864 -0.000000 2.187571
v 0.741864 -0.000000 2.253364
v 0.685393 0.283899 2.187571
v 0.685393 0.283899 2.253364
v 0.524577 0.524577 2.187571
v 0.524577 0.524577 2.253364
v 0.283899 0.685393 2.187571
v 0.283899 0.685393 2.253364
v -0.000000 0.741864 2.187571
v -0.000000 0.741864 2.253364
v -0.283899 0.685393 2.187571
v -0.283899 0.685393 2.253364
v -0.524577 0.524577 2.187571
v -0.524577 0.524577 2.253364
v -0.685393 0.283899 2.187571
v -0.685393 0.283899 2.253364
vn -0.9808 -0.1951 -0.0000
vn -0.8315 -0.5556 -0.0000
vn -0.5556 -0.8315 -0.0000
vn -0.1951 -0.9808 -0.0000
vn 0.1951 -0.9808 -0.0000
vn 0.5556 -0.8315 -0.0000
vn 0.8315 -0.5556 -0.0000
vn 0.9808 -0.1951 -0.0000
vn 0.9808 0.1951 -0.0000
vn 0.8315 0.5556 -0.0000
vn 0.5556 0.8315 -0.0000
vn 0.1951 0.9808 -0.0000
vn -0.1951 0.9808 -0.0000
vn -0.5556 0.8315 -0.0000
vn -0.0000 -0.0000 -1.0000
vn -0.8315 0.5556 -0.0000
vn -0.9808 0.1951 -0.0000
vn -0.0000 -0.0000 1.0000
vt 1.000000 0.500000
vt 1.000000 1.000000
vt 0.937500 1.000000
vt 0.937500 0.500000
vt 0.875000 1.000000
vt 0.875000 0.500000
vt 0.812500 1.000000
vt 0.812500 0.500000
vt 0.750000 1.000000
vt 0.750000 0.500000
vt 0.687500 1.000000
vt 0.687500 0.500000
vt 0.625000 1.000000
vt 0.625000 0.500000
vt 0.562500 1.000000
vt 0.562500 0.500000
vt 0.500000 1.000000
vt 0.500000 0.500000
vt 0.437500 1.000000
vt 0.437500 0.500000
vt 0.375000 1.000000
vt 0.375000 0.500000
vt 0.312500 1.000000
vt 0.312500 0.500000
vt 0.250000 1.000000
vt 0.250000 0.500000
vt 0.187500 1.000000
vt 0.187500 0.500000
vt 0.125000 1.000000
vt 0.125000 0.500000
vt 0.341844 0.471731
vt 0.250000 0.490000
vt 0.158156 0.471731
vt 0.080294 0.419706
vt 0.028269 0.341844
vt 0.010000 0.250000
vt 0.028269 0.158156
vt 0.080294 0.080294
vt 0.158156 0.028269
vt 0.250000 0.010000
vt 0.341844 0.028269
vt 0.419706 0.080294
vt 0.471731 0.158156
vt 0.490000 0.250000
vt 0.471731 0.341844
vt 0.419706 0.419706
vt 0.062500 1.000000
vt 0.062500 0.500000
vt 0.000000 1.000000
vt 0.000000 0.500000
vt 0.750000 0.490000
vt 0.841844 0.471731
vt 0.919706 0.419706
vt 0.971731 0.341844
vt 0.990000 0.250000
vt 0.971731 0.158156
vt 0.919706 0.080294
vt 0.841844 0.028269
vt 0.750000 0.010000
vt 0.658156 0.028269
vt 0.580294 0.080294
vt 0.528269 0.158156
vt 0.510000 0.250000
vt 0.528269 0.341844
vt 0.580294 0.419706
vt 0.658156 0.471731
s 0
usemtl Material
f 305/315/91 306/316/91 308/317/91 307/318/91
f 307/318/92 308/317/92 310/319/92 309/320/92
f 309/320/93 310/319/93 312/321/93 311/322/93
f 311/322/94 312/321/94 314/323/94 313/324/94
f 313/324/95 314/323/95 316/325/95 315/326/95
f 315/326/96 316/325/96 318/327/96 317/328/96
f 317/328/97 318/327/97 320/329/97 319/330/97
f 319/330/98 320/329/98 322/331/98 321/332/98
f 321/332/99 322/331/99 324/333/99 323/334/99
f 323/334/100 324/333/100 326/335/100 325/336/100
f 325/336/101 326/335/101 328/337/101 327/338/101
f 327/338/102 328/337/102 330/339/102 329/340/102
f 329/340/103 330/339/103 332/341/103 331/342/103
f 331/342/104 332/341/104 334/343/104 333/344/104
f 308/345/105 306/346/105 336/347/105 334/348/105 332/349/105 330/350/105 328/351/105 326/352/105 324/353/105 322/354/105 320/355/105 318/356/105 316/357/105 314/358/105 312/359/105 310/360/105
f 333/344/106 334/343/106 336/361/106 335/362/106
f 335/362/107 336/361/107 306/363/107 305/364/107
f 305/365/108 307/366/108 309/367/108 311/368/108 313/369/108 315/370/108 317/371/108 319/372/108 321/373/108 323/374/108 325/375/108 327/376/108 329/377/108 331/378/108 333/379/108 335/380/108
f 337/315/91 339/318/91 340/317/91 338/316/91
f 339/318/92 341/320/92 342/319/92 340/317/92
f 341/320/93 343/322/93 344/321/93 342/319/93
f 343/322/94 345/324/94 346/323/94 344/321/94
f 345/324/95 347/326/95 348/325/95 346/323/95
f 347/326/96 349/328/96 350/327/96 348/325/96
f 349/328/97 351/330/97 352/329/97 350/327/97
f 351/330/98 353/332/98 354/331/98 352/329/98
f 353/332/99 355/334/99 356/333/99 354/331/99
f 355/334/100 357/336/100 358/335/100 356/333/100
f 357/336/101 359/338/101 360/337/101 358/335/101
f 359/338/102 361/340/102 362/339/102 360/337/102
f 361/340/103 363/342/103 364/341/103 362/339/103
f 363/342/104 365/344/104 366/343/104 364/341/104
f 340/345/108 342/360/108 344/359/108 346/358/108 348/357/108 350/356/108 352/355/108 354/354/108 356/353/108 358/352/108 360/351/108 362/350/108 364/349/108 366/348/108 368/347/108 338/346/108
f 365/344/106 367/362/106 368/361/106 366/343/106
f 367/362/107 337/364/107 338/363/107 368/361/107
f 337/365/105 367/380/105 365/379/105 363/378/105 361/377/105 359/376/105 357/375/105 355/374/105 353/373/105 351/372/105 349/371/105 347/370/105 345/369/105 343/368/105 341/367/105 339/366/105
